<svg viewBox="663.943 304.429 639.148 308.141" height="50"><path d="M 720.00,308.02 C 718.38 309.17, 718.37 310.71, 717.24 315.04 C 716.10 319.37, 716.00 322.28, 714.30 329.67 C 712.61 337.06, 711.48 342.06, 708.77 351.98 C 706.06 361.91, 704.30 367.89, 700.75 379.29 C 697.20 390.69, 694.92 397.17, 691.02 408.97 C 687.11 420.77, 684.78 427.30, 681.22 438.30 C 677.67 449.30, 675.82 454.97, 673.24 463.96 C 670.66 472.95, 669.41 476.92, 668.32 483.23 C 667.23 489.54, 666.13 492.12, 667.80 495.53 C 669.47 498.94, 672.78 500.64, 676.66 500.30 C 680.54 499.96, 682.50 497.50, 687.21 493.83 C 691.92 490.16, 694.53 487.22, 700.22 481.97 C 705.92 476.71, 709.31 473.13, 715.69 467.55 C 722.07 461.98, 725.78 458.73, 732.12 454.08 C 738.47 449.44, 741.97 447.19, 747.41 444.34 C 752.86 441.49, 755.76 440.69, 759.33 439.83 C 762.89 438.98, 763.97 439.65, 765.24 440.06 C 766.51 440.46, 765.69 440.27, 765.68 441.87 C 765.67 443.46, 766.11 444.62, 765.17 448.02 C 764.24 451.43, 763.59 454.14, 761.02 458.90 C 758.45 463.67, 756.54 466.68, 752.32 471.85 C 748.10 477.01, 745.29 479.91, 739.92 484.72 C 734.55 489.53, 731.23 492.04, 725.46 495.88 C 719.70 499.72, 716.35 501.51, 711.10 503.90 C 705.86 506.30, 702.94 506.87, 699.23 507.85 C 695.53 508.84, 694.45 508.66, 692.57 508.82 C 690.69 508.99, 690.85 508.14, 689.84 508.67 C 688.83 509.19, 687.21 509.80, 687.51 511.43 C 687.81 513.06, 688.54 515.91, 691.34 516.80 C 694.14 517.68, 696.95 517.22, 701.51 515.85 C 706.07 514.48, 708.65 512.93, 714.13 509.95 C 719.61 506.97, 722.93 505.08, 728.91 500.96 C 734.88 496.84, 738.28 494.28, 743.99 489.36 C 749.71 484.43, 752.67 481.57, 757.48 476.33 C 762.29 471.09, 764.64 468.27, 768.05 463.16 C 771.46 458.06, 773.04 455.55, 774.54 450.83 C 776.05 446.11, 776.83 443.34, 775.56 439.56 C 774.29 435.79, 771.85 433.35, 768.21 431.96 C 764.57 430.56, 762.12 431.18, 757.36 432.58 C 752.60 433.99, 750.11 435.57, 744.40 438.97 C 738.70 442.38, 735.30 444.78, 728.82 449.62 C 722.34 454.46, 718.59 457.74, 711.99 463.19 C 705.38 468.65, 701.69 472.01, 695.79 476.89 C 689.89 481.77, 686.71 484.45, 682.47 487.58 C 678.23 490.71, 676.25 491.40, 674.59 492.53 C 672.94 493.66, 674.36 494.94, 674.20 493.24 C 674.03 491.53, 673.12 489.65, 673.75 484.02 C 674.39 478.38, 675.18 473.98, 677.38 465.07 C 679.59 456.15, 681.36 450.41, 684.78 439.43 C 688.20 428.44, 690.52 421.91, 694.47 410.12 C 698.42 398.34, 700.74 391.86, 704.53 380.51 C 708.32 369.16, 710.25 363.21, 713.42 353.37 C 716.58 343.52, 718.09 338.60, 720.35 331.30 C 722.61 324.00, 723.72 321.27, 724.72 316.87 C 725.72 312.46, 726.28 311.02, 725.34 309.25 C 724.39 307.48, 721.62 306.86, 720.00 308.02" style="stroke: black; fill: black;"/><path d="M 829.20,429.70 C 827.32 430.21, 826.29 430.68, 825.14 433.09 C 823.98 435.49, 824.65 437.39, 823.42 441.72 C 822.19 446.06, 821.20 449.23, 818.98 454.78 C 816.75 460.33, 815.13 463.90, 812.31 469.47 C 809.50 475.03, 807.34 478.00, 804.90 482.59 C 802.45 487.18, 800.04 489.10, 800.09 492.40 C 800.15 495.70, 802.45 498.35, 805.16 499.09 C 807.88 499.82, 809.70 498.89, 813.67 496.08 C 817.64 493.26, 819.72 490.12, 825.03 485.01 C 830.34 479.89, 833.76 476.26, 840.23 470.50 C 846.70 464.74, 850.68 461.26, 857.37 456.19 C 864.06 451.13, 867.93 448.47, 873.67 445.19 C 879.41 441.90, 882.57 440.99, 886.07 439.76 C 889.56 438.54, 890.38 438.79, 891.14 439.05 C 891.90 439.30, 890.56 439.06, 889.86 441.04 C 889.17 443.02, 889.07 445.10, 887.65 448.93 C 886.22 452.76, 884.88 455.75, 882.74 460.19 C 880.60 464.62, 878.45 467.05, 876.94 471.10 C 875.44 475.15, 874.27 477.35, 875.21 480.45 C 876.16 483.55, 878.53 486.02, 881.68 486.59 C 884.82 487.16, 886.62 485.80, 890.96 483.28 C 895.29 480.77, 897.77 478.14, 903.36 474.01 C 908.95 469.87, 912.49 467.02, 918.92 462.62 C 925.35 458.23, 929.24 455.59, 935.50 452.04 C 941.76 448.49, 945.58 446.67, 950.22 444.88 C 954.86 443.09, 956.93 443.52, 958.69 443.10 C 960.44 442.69, 959.46 441.77, 959.00 442.78 C 958.54 443.79, 957.72 444.96, 956.37 448.15 C 955.02 451.35, 953.96 454.21, 952.27 458.75 C 950.57 463.29, 949.20 466.11, 947.91 470.84 C 946.62 475.57, 945.31 478.10, 945.81 482.40 C 946.31 486.71, 947.30 489.81, 950.41 492.37 C 953.52 494.94, 956.40 495.42, 961.37 495.23 C 966.34 495.04, 969.02 493.79, 975.28 491.44 C 981.53 489.09, 985.14 487.27, 992.63 483.49 C 1000.11 479.72, 1004.45 477.19, 1012.70 472.56 C 1020.95 467.93, 1025.62 465.07, 1033.90 460.32 C 1042.18 455.57, 1046.65 452.91, 1054.10 448.79 C 1061.56 444.67, 1065.27 442.56, 1071.16 439.72 C 1077.05 436.88, 1079.91 436.23, 1083.56 434.60 C 1087.21 432.98, 1088.47 432.96, 1089.40 431.59 C 1090.34 430.23, 1089.55 429.02, 1088.23 427.77 C 1086.90 426.53, 1085.12 425.32, 1082.79 425.35 C 1080.45 425.37, 1079.13 426.15, 1076.54 427.89 C 1073.95 429.63, 1072.83 431.60, 1069.83 434.06 C 1066.83 436.52, 1064.94 437.73, 1061.54 440.19 C 1058.14 442.65, 1056.17 443.87, 1052.82 446.35 C 1049.47 448.83, 1047.73 450.10, 1044.78 452.57 C 1041.82 455.04, 1039.84 455.96, 1038.05 458.70 C 1036.26 461.44, 1035.74 463.29, 1035.83 466.28 C 1035.92 469.26, 1036.52 471.26, 1038.48 473.63 C 1040.44 476.01, 1042.42 477.70, 1045.63 478.14 C 1048.84 478.58, 1050.85 477.66, 1054.53 475.82 C 1058.20 473.98, 1059.93 472.09, 1064.03 468.95 C 1068.13 465.80, 1070.48 463.89, 1075.02 460.09 C 1079.56 456.30, 1082.14 454.06, 1086.73 449.98 C 1091.31 445.90, 1093.75 443.51, 1097.94 439.68 C 1102.13 435.86, 1105.20 433.91, 1107.68 430.84 C 1110.16 427.78, 1110.84 426.01, 1110.32 424.37 C 1109.80 422.72, 1107.04 421.12, 1105.10 422.63 C 1103.15 424.14, 1103.16 426.67, 1100.61 431.91 C 1098.05 437.15, 1096.21 441.10, 1092.33 448.82 C 1088.44 456.55, 1086.05 461.33, 1081.17 470.53 C 1076.28 479.72, 1073.40 484.88, 1067.88 494.78 C 1062.36 504.68, 1059.26 510.08, 1053.56 520.03 C 1047.86 529.97, 1044.85 535.31, 1039.39 544.51 C 1033.93 553.71, 1031.07 558.46, 1026.25 566.02 C 1021.43 573.59, 1018.99 577.19, 1015.29 582.32 C 1011.59 587.44, 1008.94 588.87, 1007.74 591.65 C 1006.55 594.43, 1007.97 596.05, 1009.30 596.22 C 1010.63 596.39, 1012.16 595.86, 1014.40 592.51 C 1016.64 589.17, 1017.25 585.74, 1020.52 579.48 C 1023.79 573.21, 1026.01 569.00, 1030.77 561.20 C 1035.53 553.40, 1038.57 548.80, 1044.32 540.48 C 1050.07 532.17, 1053.42 527.70, 1059.51 519.61 C 1065.60 511.53, 1068.90 507.40, 1074.76 500.07 C 1080.63 492.74, 1083.59 489.17, 1088.84 482.94 C 1094.08 476.72, 1096.53 473.86, 1100.99 468.96 C 1105.45 464.05, 1107.49 461.91, 1111.14 458.43 C 1114.79 454.96, 1116.53 453.68, 1119.24 451.59 C 1121.95 449.51, 1123.08 449.04, 1124.70 448.01 C 1126.33 446.98, 1126.38 446.56, 1127.35 446.45 C 1128.32 446.34, 1128.32 446.69, 1129.54 447.46 C 1130.75 448.23, 1131.35 450.27, 1133.41 450.31 C 1135.47 450.36, 1138.30 449.96, 1139.82 447.69 C 1141.33 445.42, 1141.75 441.53, 1140.98 438.95 C 1140.21 436.38, 1137.99 435.44, 1135.96 434.81 C 1133.94 434.18, 1133.04 435.44, 1130.87 435.82 C 1128.69 436.20, 1127.49 436.05, 1125.09 436.73 C 1122.68 437.40, 1121.26 437.53, 1118.84 439.19 C 1116.43 440.85, 1115.57 442.10, 1113.01 445.01 C 1110.44 447.92, 1109.28 449.69, 1106.03 453.75 C 1102.77 457.81, 1100.91 460.09, 1096.73 465.32 C 1092.54 470.55, 1090.19 473.49, 1085.11 479.90 C 1080.03 486.30, 1077.13 489.92, 1071.32 497.35 C 1065.51 504.77, 1062.23 508.92, 1056.08 517.02 C 1049.93 525.12, 1046.56 529.59, 1040.58 537.83 C 1034.59 546.06, 1031.41 550.60, 1026.15 558.19 C 1020.88 565.79, 1018.19 569.73, 1014.25 575.81 C 1010.31 581.89, 1007.88 584.48, 1006.45 588.61 C 1005.02 592.74, 1005.62 594.91, 1007.09 596.45 C 1008.57 597.99, 1011.22 598.49, 1013.82 596.28 C 1016.42 594.08, 1016.86 591.03, 1020.11 585.44 C 1023.35 579.85, 1025.53 576.13, 1030.06 568.35 C 1034.60 560.56, 1037.42 555.78, 1042.78 546.50 C 1048.14 537.21, 1051.14 531.86, 1056.85 521.92 C 1062.57 511.97, 1065.68 506.58, 1071.35 496.75 C 1077.01 486.92, 1079.93 481.77, 1085.20 472.78 C 1090.46 463.79, 1093.17 459.19, 1097.68 451.79 C 1102.18 444.40, 1104.65 440.93, 1107.74 435.80 C 1110.84 430.68, 1113.11 429.21, 1113.16 426.16 C 1113.21 423.12, 1110.50 421.01, 1108.00 420.58 C 1105.51 420.15, 1103.81 421.32, 1100.68 424.00 C 1097.54 426.69, 1096.11 429.94, 1092.32 434.00 C 1088.53 438.06, 1086.19 440.41, 1081.73 444.32 C 1077.26 448.22, 1074.61 450.31, 1069.99 453.53 C 1065.38 456.75, 1062.80 458.37, 1058.66 460.41 C 1054.52 462.45, 1052.15 462.73, 1049.29 463.72 C 1046.42 464.72, 1045.40 464.52, 1044.32 465.40 C 1043.24 466.28, 1043.63 467.40, 1043.90 468.11 C 1044.17 468.82, 1044.69 469.23, 1045.66 468.95 C 1046.64 468.68, 1047.33 468.29, 1048.77 466.72 C 1050.21 465.15, 1050.72 463.44, 1052.85 461.10 C 1054.98 458.76, 1056.46 457.35, 1059.42 455.03 C 1062.38 452.70, 1064.24 451.51, 1067.65 449.48 C 1071.06 447.46, 1072.98 446.43, 1076.48 444.90 C 1079.97 443.38, 1082.26 443.46, 1085.12 441.86 C 1087.98 440.25, 1089.54 439.32, 1090.76 436.88 C 1091.98 434.44, 1091.87 431.99, 1091.22 429.67 C 1090.58 427.34, 1089.74 425.70, 1087.54 425.26 C 1085.34 424.81, 1084.05 425.57, 1080.22 427.44 C 1076.39 429.30, 1074.11 431.18, 1068.40 434.59 C 1062.68 438.00, 1059.02 440.17, 1051.66 444.50 C 1044.29 448.83, 1039.83 451.50, 1031.56 456.23 C 1023.29 460.97, 1018.59 463.78, 1010.31 468.17 C 1002.02 472.56, 997.59 474.92, 990.13 478.18 C 982.66 481.44, 978.80 482.84, 972.98 484.46 C 967.17 486.07, 964.33 486.15, 961.04 486.26 C 957.76 486.37, 957.53 485.86, 956.55 485.02 C 955.58 484.17, 955.91 484.28, 956.17 482.03 C 956.43 479.78, 956.63 477.65, 957.87 473.76 C 959.11 469.88, 960.59 467.13, 962.36 462.61 C 964.12 458.08, 965.85 455.51, 966.70 451.16 C 967.55 446.80, 968.18 444.14, 966.60 440.83 C 965.03 437.51, 962.66 435.10, 958.83 434.59 C 954.99 434.08, 952.73 435.87, 947.43 438.27 C 942.14 440.68, 938.76 442.82, 932.36 446.62 C 925.95 450.41, 922.07 453.06, 915.40 457.25 C 908.73 461.43, 904.88 463.96, 899.01 467.54 C 893.13 471.11, 889.76 472.79, 886.04 475.13 C 882.31 477.48, 880.98 478.05, 880.38 479.28 C 879.79 480.51, 881.74 481.99, 883.08 481.27 C 884.43 480.55, 885.27 479.03, 887.11 475.70 C 888.94 472.37, 890.16 469.29, 892.26 464.63 C 894.36 459.97, 896.07 457.12, 897.62 452.40 C 899.17 447.68, 900.70 444.98, 900.01 441.04 C 899.31 437.10, 897.39 434.34, 894.14 432.70 C 890.90 431.06, 888.50 431.37, 883.79 432.84 C 879.07 434.32, 876.52 436.28, 870.57 440.08 C 864.63 443.88, 860.90 446.65, 854.07 451.84 C 847.23 457.02, 843.18 460.47, 836.40 466.01 C 829.62 471.55, 825.83 474.88, 820.16 479.51 C 814.49 484.15, 811.22 486.17, 808.05 489.16 C 804.88 492.16, 804.18 493.27, 804.31 494.49 C 804.44 495.70, 807.00 496.83, 808.67 495.24 C 810.35 493.65, 810.54 490.97, 812.67 486.53 C 814.80 482.08, 816.50 478.64, 819.33 473.00 C 822.16 467.36, 824.05 463.84, 826.82 458.32 C 829.59 452.80, 831.13 449.82, 833.20 445.41 C 835.27 441.01, 836.89 439.26, 837.16 436.29 C 837.44 433.33, 836.17 431.90, 834.58 430.58 C 832.99 429.26, 831.09 429.20, 829.20 429.70" style="stroke: black; fill: black;"/><path d="M 1185.65,429.60 C 1183.73 429.76, 1183.01 429.93, 1181.31 431.34 C 1179.61 432.76, 1178.14 433.82, 1177.16 436.66 C 1176.18 439.50, 1176.18 441.78, 1176.39 445.54 C 1176.61 449.31, 1176.54 451.82, 1178.22 455.47 C 1179.91 459.12, 1181.39 461.62, 1184.82 463.78 C 1188.26 465.93, 1190.77 466.43, 1195.40 466.24 C 1200.03 466.04, 1202.43 464.90, 1207.96 462.80 C 1213.50 460.69, 1216.64 459.08, 1223.07 455.73 C 1229.51 452.38, 1233.26 450.09, 1240.15 446.03 C 1247.04 441.97, 1250.94 439.40, 1257.54 435.42 C 1264.13 431.44, 1268.17 429.01, 1273.13 426.13 C 1278.09 423.24, 1280.92 422.63, 1282.34 421.02 C 1283.77 419.41, 1281.74 417.06, 1280.26 418.08 C 1278.78 419.10, 1278.26 421.19, 1274.94 426.11 C 1271.62 431.04, 1269.06 434.98, 1263.65 442.70 C 1258.25 450.43, 1254.68 455.35, 1247.93 464.75 C 1241.17 474.14, 1237.15 479.48, 1229.87 489.66 C 1222.60 499.85, 1218.63 505.43, 1211.55 515.66 C 1204.46 525.90, 1200.82 531.33, 1194.44 540.86 C 1188.06 550.38, 1184.96 555.18, 1179.66 563.29 C 1174.35 571.40, 1171.97 575.23, 1167.91 581.42 C 1163.85 587.61, 1162.09 590.26, 1159.35 594.24 C 1156.61 598.22, 1155.27 599.12, 1154.19 601.31 C 1153.12 603.51, 1153.58 604.25, 1153.97 605.21 C 1154.36 606.17, 1154.91 606.51, 1156.14 606.11 C 1157.37 605.71, 1159.59 604.22, 1160.10 603.22 C 1160.62 602.21, 1160.87 600.05, 1158.72 601.08 C 1156.58 602.12, 1151.02 606.72, 1149.37 608.39 C 1147.73 610.07, 1149.33 609.47, 1150.49 609.45 C 1151.65 609.44, 1153.55 608.54, 1155.17 608.32 C 1156.78 608.09, 1157.19 608.84, 1158.57 608.32 C 1159.96 607.79, 1160.79 607.83, 1162.11 605.68 C 1163.43 603.53, 1163.17 601.91, 1165.18 597.57 C 1167.19 593.24, 1168.58 590.41, 1172.16 583.99 C 1175.75 577.57, 1178.03 573.70, 1183.09 565.47 C 1188.14 557.24, 1191.19 552.42, 1197.46 542.85 C 1203.72 533.29, 1207.33 527.86, 1214.41 517.65 C 1221.48 507.43, 1225.44 501.87, 1232.82 491.80 C 1240.21 481.73, 1244.26 476.43, 1251.33 467.28 C 1258.39 458.13, 1262.25 453.48, 1268.14 446.05 C 1274.04 438.62, 1277.15 435.36, 1280.80 430.15 C 1284.45 424.93, 1286.57 423.22, 1286.40 419.99 C 1286.24 416.77, 1283.39 414.03, 1280.00 414.04 C 1276.60 414.05, 1274.56 416.79, 1269.43 420.05 C 1264.30 423.31, 1260.82 426.18, 1254.36 430.34 C 1247.91 434.50, 1244.02 437.01, 1237.17 440.85 C 1230.32 444.70, 1226.47 446.79, 1220.12 449.57 C 1213.77 452.36, 1210.39 453.54, 1205.41 454.78 C 1200.44 456.03, 1198.03 455.86, 1195.23 455.79 C 1192.42 455.71, 1192.08 455.17, 1191.37 454.42 C 1190.66 453.67, 1191.29 453.52, 1191.66 452.03 C 1192.03 450.54, 1192.49 449.24, 1193.21 446.98 C 1193.94 444.71, 1195.08 443.21, 1195.29 440.70 C 1195.50 438.19, 1195.12 436.47, 1194.25 434.43 C 1193.37 432.40, 1192.63 431.51, 1190.91 430.54 C 1189.19 429.57, 1187.57 429.44, 1185.65 429.60" style="stroke: black; fill: black;"/><path d="M 1294.00,492.07 C 1295.40 493.30, 1298.83 492.69, 1299.71 491.05 C 1300.60 489.41, 1299.83 485.09, 1298.43 483.86 C 1297.03 482.63, 1293.61 483.24, 1292.72 484.88 C 1291.83 486.52, 1292.60 490.83, 1294.00 492.07" style="stroke: black; fill: black;"/></svg>